<!--?xml version="1.0" encoding="UTF-8"?--><svg viewBox="0 0 292.77 135.06" xmlns="http://www.w3.org/2000/svg" id="Layer_2"><defs><style>.cls-1{fill:#398bca;}.cls-2{fill:#231f20;}</style></defs><g id="Layer_1-2"><g><path d="m9.96,102.6V17.34h14v85.25h-14Zm5.8-35.16v-13.42h29.36c3.01,0,5.41-1.06,7.21-3.19,1.8-2.13,2.71-4.95,2.75-8.47,0-3.48-.91-6.28-2.72-8.41-1.82-2.13-4.23-3.19-7.24-3.19H15.76v-13.42h29.77c4.84,0,9.07,1.04,12.69,3.11,3.61,2.07,6.43,4.98,8.44,8.73,2.01,3.75,3.02,8.14,3.02,13.18s-1.02,9.43-3.05,13.18c-2.03,3.75-4.84,6.67-8.44,8.76-3.59,2.09-7.81,3.13-12.66,3.13H15.76Zm40.66,35.16l-20.1-37.79,14.53-2.7,22.38,40.49h-16.82Z" class="cls-2"></path><path d="m183.28,31.41v-14h13.95v14h-13.95Zm0,71.19v-60.82h13.95v60.82h-13.95Z" class="cls-2"></path><path d="m223.98,102.6V17.4h14v85.2h-14Zm8.09,0v-13.42h19.86c5.78,0,10.26-1.45,13.45-4.37,3.18-2.91,4.78-7,4.78-12.28v-25.08c0-5.31-1.59-9.41-4.78-12.3-3.18-2.89-7.67-4.34-13.45-4.34h-19.86v-13.42h19.51c10.51,0,18.63,2.67,24.38,8s8.61,12.84,8.61,22.53v24.14c0,6.25-1.26,11.66-3.78,16.23s-6.24,8.1-11.16,10.58c-4.92,2.48-10.96,3.72-18.11,3.72h-19.45Z" class="cls-2"></path></g><g id="Layer_1-2"><path d="m128.81,18.71c.46,3.16.8,6.25,1.08,9.43.24.53.02,1.16.26,1.73.04.78.11,1.51.29,2.27.11,1.67.93,3.12,1.37,4.75,1.02-.81,1.92-2.66,2.99-2.93.78,1.24,1.43,2.55,1.38,4.03.45,4.76.26,9.59.69,14.3.19,2.08,1.71,4.12,2.69,5.98,1.41.98,2.74,1.93,4.16,2.79,4.11,2.99,8.49,5.66,12.61,8.59,1.67.91,3.05,2.22,4.7,3.17v10.61c-4.23.77-8.36,2.11-12.64,3.05-3.51,1.08-7.64,1.73-11.07,2.92.66,1.48,1.12,3.01,1.86,4.46,2.89,1.62,5.69,3.7,8.46,5.65.56.43,1.65.67,1.77,1.42-.02,1.87.02,3.75-.02,5.62-.61.23-1.22.35-1.8.48-3.07.82-6.23,1.55-9.31,2.41-2.19.59-4.69.87-6.65,1.67h-.14c-.34-3.22-.93-6.37-1.36-9.52-.19-.96-.43-1.86-.62-2.82-.24-.75-.49-1.45-.44-2.27-.79,1.19-1.27,2.53-1.82,3.81-5.16-.09-4.63,1.11-6.75-3.84-.17,1.94-.98,3.69-1.14,5.54-.56,3.03-.91,6.04-1.35,9.09-5.35-1.49-11.57-2.77-17.16-4.37-1.7-.46-.33-3.96-.76-5.52-.03-1.28,1.89-1.47,2.59-2.39,1.95-1.13,3.84-2.57,5.79-3.85,1.56-.89,2.3-1.49,2.84-3.37.23-1.09,1.69-2.53-.15-2.56-7.66-1.86-15.09-4.03-22.76-5.61v-10.61c1.49-.72,2.76-1.94,4.15-2.81,4.12-2.61,8.08-5.54,12.16-8.12,4.44-3.05,5.99-3.46,7.93-8.99.28-4.94.39-9.84.65-14.83.05-1.45.62-2.73,1.33-4.02.71-.56,2.16,2.36,3.08,2.8,1.23-3.07,1.81-6.18,1.96-9.56.43-2.69.61-5.44,1.06-8.09.26-2.31.42-4.7.87-6.92.4-2.59,1.71-5.4,3.01-7.1,1.48,1.76,2.69,4.71,3.33,7.14l.87,6.39Z" class="cls-1"></path></g></g></svg>